<svg xmlns="http://www.w3.org/2000/svg" xmlns:xlink="http://www.w3.org/1999/xlink" viewBox="0,0,256,256" width="500px" height="500px" fill-rule="nonzero"><g fill="#8e00ff" fill-rule="nonzero" stroke="none" stroke-width="1" stroke-linecap="butt" stroke-linejoin="miter" stroke-miterlimit="10" stroke-dasharray="" stroke-dashoffset="0" font-family="none" font-weight="none" font-size="none" text-anchor="none" style="mix-blend-mode: normal"><g transform="scale(5.12,5.12)"><path d="M46.971,31.786c-0.003,-0.012 0.001,-0.024 -0.002,-0.036c-0.005,-0.021 -0.021,-0.036 -0.027,-0.057c-0.029,-0.088 -0.068,-0.169 -0.119,-0.245c-0.018,-0.026 -0.032,-0.054 -0.053,-0.078c-0.071,-0.087 -0.154,-0.164 -0.252,-0.223c-0.017,-0.01 -0.036,-0.014 -0.053,-0.024c-0.062,-0.033 -0.125,-0.067 -0.195,-0.086l-2.313,-0.65c1.502,-2.072 2.468,-4.474 2.849,-6.998c0.004,-0.013 0.009,-0.022 0.013,-0.035c0.013,-0.045 0.004,-0.089 0.01,-0.134c0.103,-0.732 0.171,-1.472 0.171,-2.22c0,-8.822 -7.178,-16 -16,-16c-5.76,0 -10.805,3.071 -13.623,7.651c-0.476,0.111 -0.938,0.244 -1.396,0.381c0.014,-0.024 -0.397,0.78 -0.855,1.704v0c-0.004,0.008 -0.008,0.017 -0.012,0.025c-0.036,0.073 -0.072,0.145 -0.108,0.219c-0.101,0.204 -0.202,0.411 -0.3,0.614c0.003,-0.001 0.005,-0.002 0.008,-0.003v0c-0.003,0.001 -0.005,0.002 -0.008,0.003c-0.225,0.465 -0.458,0.995 -0.678,1.562c-0.213,0.525 -0.386,1.017 -0.486,1.413c-0.001,0.003 -0.002,0.006 -0.003,0.009v0c-0.008,0.033 -0.024,0.076 -0.031,0.107c0,0.001 0.001,0.001 0.001,0.003c-0.04,0.139 -0.079,0.279 -0.115,0.421c-0.212,0.835 -0.354,1.705 -0.373,2.569c0.515,-0.666 1.198,-1.251 2.031,-1.701c-0.022,0.339 -0.052,0.677 -0.052,1.023c0,3.238 0.963,6.306 2.708,8.902c-1.767,-0.26 -3.299,-1.046 -4.331,-2.139c-0.027,-0.022 -0.059,-0.031 -0.084,-0.056c-4.212,-4.212 -1.637,-10.655 -0.065,-13.645c-2.76,1.241 -5.097,2.972 -6.83,5.044c-1.553,1.858 -2.2,4.332 -1.858,6.729c0.191,1.343 0.518,2.706 1.04,4.005c0.583,1.136 1.334,2.175 2.258,3.107c3.211,3.242 8.385,5.031 14.571,5.049l0.739,3.999c-0.001,0.002 -0.002,0.002 -0.003,0.004c-5.219,0.032 -9.915,-1.684 -13.224,-4.426c-3.985,-2.073 -5.976,-5.562 -6.894,-9.155c0.28,8.628 9.121,15.582 19.973,15.582c0.173,0 0.343,-0.011 0.515,-0.014l0.474,2.565l5.979,-12.704l-6.028,-7.007l18.216,5.119l-10.346,2.67l-5.859,12.45l20.618,-14.257c0.007,-0.005 0.012,-0.013 0.019,-0.018c0.023,-0.017 0.04,-0.038 0.061,-0.057c0.069,-0.06 0.128,-0.126 0.177,-0.2c0.019,-0.028 0.036,-0.056 0.052,-0.086c0.045,-0.085 0.077,-0.174 0.096,-0.269c0.004,-0.02 0.013,-0.038 0.016,-0.059c0.013,-0.098 0.014,-0.198 -0.003,-0.299c-0.004,-0.016 -0.013,-0.031 -0.016,-0.048zM31.418,23.302c-2.242,-0.701 -4.307,0.658 -5.338,1.744l-4.789,-1.028c-0.049,-0.014 -0.099,-0.016 -0.148,-0.022c-0.023,-0.003 -0.045,-0.009 -0.069,-0.01c-0.111,-0.006 -0.221,0.008 -0.327,0.038c-0.026,0.007 -0.049,0.018 -0.074,0.028c-0.098,0.036 -0.19,0.086 -0.273,0.153c-0.01,0.008 -0.022,0.01 -0.031,0.018c-0.003,0.003 -0.004,0.007 -0.008,0.01c-0.004,0.004 -0.01,0.006 -0.014,0.01c-0.083,0.075 -0.145,0.166 -0.197,0.261c-0.014,0.026 -0.026,0.051 -0.038,0.078c-0.044,0.101 -0.077,0.206 -0.087,0.317c0,0.003 -0.002,0.006 -0.002,0.009c-0.006,0.084 -0.002,0.17 0.014,0.255l1.056,5.716c-2.614,-2.612 -4.093,-6.116 -4.093,-9.879c0,-7.12 5.347,-13.004 12.234,-13.876c1.473,0.275 1.915,0.67 1.959,0.802c0.024,0.077 -0.039,0.438 -0.643,1.069c-0.729,0.763 -1.019,1.826 -0.771,2.844c0.237,0.98 0.946,1.762 1.897,2.09c1.041,0.358 2.049,0.65 2.858,0.884c0.201,0.059 0.416,0.121 0.626,0.183c-3.686,2.53 -2.54,6.96 -3.742,8.306z"></path></g></g></svg>